<svg width="391" height="93" viewBox="0 0 391 93" fill="none" xmlns="http://www.w3.org/2000/svg">
<path d="M72.256 88.126C71.428 88.126 70.696 87.982 70.06 87.694C69.436 87.406 68.944 87.004 68.584 86.488C68.224 85.972 68.032 85.396 68.008 84.76H69.34C69.4 85.372 69.67 85.912 70.15 86.38C70.63 86.836 71.332 87.064 72.256 87.064C73.108 87.064 73.78 86.848 74.272 86.416C74.776 85.972 75.028 85.414 75.028 84.742C75.028 84.202 74.89 83.77 74.614 83.446C74.338 83.11 73.996 82.864 73.588 82.708C73.18 82.54 72.616 82.36 71.896 82.168C71.056 81.94 70.39 81.718 69.898 81.502C69.406 81.286 68.986 80.95 68.638 80.494C68.29 80.038 68.116 79.42 68.116 78.64C68.116 77.992 68.284 77.416 68.62 76.912C68.956 76.396 69.43 75.994 70.042 75.706C70.654 75.418 71.356 75.274 72.148 75.274C73.312 75.274 74.248 75.562 74.956 76.138C75.676 76.702 76.09 77.434 76.198 78.334H74.83C74.746 77.818 74.464 77.362 73.984 76.966C73.504 76.558 72.856 76.354 72.04 76.354C71.284 76.354 70.654 76.558 70.15 76.966C69.646 77.362 69.394 77.908 69.394 78.604C69.394 79.132 69.532 79.558 69.808 79.882C70.084 80.206 70.426 80.452 70.834 80.62C71.254 80.788 71.818 80.968 72.526 81.16C73.342 81.388 74.002 81.616 74.506 81.844C75.01 82.06 75.436 82.396 75.784 82.852C76.132 83.308 76.306 83.92 76.306 84.688C76.306 85.276 76.15 85.834 75.838 86.362C75.526 86.89 75.064 87.316 74.452 87.64C73.84 87.964 73.108 88.126 72.256 88.126ZM88.0828 75.418V88H86.8228V82.114H80.0008V88H78.7408V75.418H80.0008V81.07H86.8228V75.418H88.0828ZM98.2476 85.012H92.5236L91.4256 88H90.0936L94.6836 75.58H96.1056L100.678 88H99.3456L98.2476 85.012ZM97.8696 83.968L95.3856 77.164L92.9016 83.968H97.8696ZM106.426 75.418C107.818 75.418 109.012 75.67 110.008 76.174C111.004 76.678 111.766 77.404 112.294 78.352C112.822 79.3 113.086 80.428 113.086 81.736C113.086 83.032 112.822 84.154 112.294 85.102C111.766 86.038 111.004 86.758 110.008 87.262C109.012 87.754 107.818 88 106.426 88H102.7V75.418H106.426ZM106.426 86.956C108.178 86.956 109.51 86.5 110.422 85.588C111.346 84.664 111.808 83.38 111.808 81.736C111.808 80.08 111.346 78.79 110.422 77.866C109.51 76.93 108.178 76.462 106.426 76.462H103.96V86.956H106.426ZM121.061 88.126C119.897 88.126 118.841 87.856 117.893 87.316C116.945 86.764 116.195 86.002 115.643 85.03C115.103 84.046 114.833 82.936 114.833 81.7C114.833 80.464 115.103 79.36 115.643 78.388C116.195 77.404 116.945 76.642 117.893 76.102C118.841 75.55 119.897 75.274 121.061 75.274C122.237 75.274 123.299 75.55 124.247 76.102C125.195 76.642 125.939 77.404 126.479 78.388C127.019 79.36 127.289 80.464 127.289 81.7C127.289 82.936 127.019 84.046 126.479 85.03C125.939 86.002 125.195 86.764 124.247 87.316C123.299 87.856 122.237 88.126 121.061 88.126ZM121.061 87.028C121.997 87.028 122.837 86.812 123.581 86.38C124.325 85.948 124.913 85.33 125.345 84.526C125.777 83.71 125.993 82.768 125.993 81.7C125.993 80.632 125.777 79.696 125.345 78.892C124.913 78.088 124.325 77.47 123.581 77.038C122.837 76.606 121.997 76.39 121.061 76.39C120.125 76.39 119.285 76.606 118.541 77.038C117.797 77.47 117.209 78.088 116.777 78.892C116.345 79.696 116.129 80.632 116.129 81.7C116.129 82.768 116.345 83.71 116.777 84.526C117.209 85.33 117.797 85.948 118.541 86.38C119.285 86.812 120.125 87.028 121.061 87.028ZM144.858 75.418L141.294 88H139.89L136.722 77.272L133.482 88L132.114 88.018L128.622 75.418H129.972L132.852 86.452L136.074 75.418H137.478L140.61 86.452L143.508 75.418H144.858ZM161.625 79.09C161.265 78.262 160.713 77.614 159.969 77.146C159.237 76.666 158.373 76.426 157.377 76.426C156.441 76.426 155.601 76.642 154.857 77.074C154.113 77.506 153.525 78.124 153.093 78.928C152.661 79.72 152.445 80.644 152.445 81.7C152.445 82.756 152.661 83.686 153.093 84.49C153.525 85.294 154.113 85.912 154.857 86.344C155.601 86.776 156.441 86.992 157.377 86.992C158.253 86.992 159.039 86.806 159.735 86.434C160.443 86.05 161.007 85.51 161.427 84.814C161.859 84.106 162.105 83.284 162.165 82.348H156.873V81.322H163.497V82.24C163.437 83.344 163.137 84.346 162.597 85.246C162.057 86.134 161.331 86.836 160.419 87.352C159.519 87.868 158.505 88.126 157.377 88.126C156.213 88.126 155.157 87.856 154.209 87.316C153.261 86.764 152.511 86.002 151.959 85.03C151.419 84.046 151.149 82.936 151.149 81.7C151.149 80.464 151.419 79.36 151.959 78.388C152.511 77.404 153.261 76.642 154.209 76.102C155.157 75.55 156.213 75.274 157.377 75.274C158.721 75.274 159.897 75.61 160.905 76.282C161.913 76.954 162.645 77.89 163.101 79.09H161.625ZM171.457 88.126C170.293 88.126 169.237 87.856 168.289 87.316C167.341 86.764 166.591 86.002 166.039 85.03C165.499 84.046 165.229 82.936 165.229 81.7C165.229 80.464 165.499 79.36 166.039 78.388C166.591 77.404 167.341 76.642 168.289 76.102C169.237 75.55 170.293 75.274 171.457 75.274C172.633 75.274 173.695 75.55 174.643 76.102C175.591 76.642 176.335 77.404 176.875 78.388C177.415 79.36 177.685 80.464 177.685 81.7C177.685 82.936 177.415 84.046 176.875 85.03C176.335 86.002 175.591 86.764 174.643 87.316C173.695 87.856 172.633 88.126 171.457 88.126ZM171.457 87.028C172.393 87.028 173.233 86.812 173.977 86.38C174.721 85.948 175.309 85.33 175.741 84.526C176.173 83.71 176.389 82.768 176.389 81.7C176.389 80.632 176.173 79.696 175.741 78.892C175.309 78.088 174.721 77.47 173.977 77.038C173.233 76.606 172.393 76.39 171.457 76.39C170.521 76.39 169.681 76.606 168.937 77.038C168.193 77.47 167.605 78.088 167.173 78.892C166.741 79.696 166.525 80.632 166.525 81.7C166.525 82.768 166.741 83.71 167.173 84.526C167.605 85.33 168.193 85.948 168.937 86.38C169.681 86.812 170.521 87.028 171.457 87.028ZM189.963 75.418L185.193 88H183.753L178.983 75.418H180.351L184.473 86.632L188.631 75.418H189.963ZM193.116 76.444V81.142H197.886V82.186H193.116V86.956H198.426V88H191.856V75.4H198.426V76.444H193.116ZM207.605 88L204.491 82.744H202.169V88H200.909V75.418H204.689C206.093 75.418 207.155 75.754 207.875 76.426C208.607 77.098 208.973 77.98 208.973 79.072C208.973 79.984 208.709 80.764 208.181 81.412C207.665 82.048 206.897 82.462 205.877 82.654L209.117 88H207.605ZM202.169 81.718H204.707C205.691 81.718 206.429 81.478 206.921 80.998C207.425 80.518 207.677 79.876 207.677 79.072C207.677 78.244 207.437 77.608 206.957 77.164C206.477 76.708 205.721 76.48 204.689 76.48H202.169V81.718ZM220.959 88H219.699L212.733 77.416V88H211.473V75.418H212.733L219.699 85.984V75.418H220.959V88ZM236.107 75.58V88H234.847V78.082L230.419 88H229.501L225.073 78.118V88H223.813V75.58H225.145L229.951 86.344L234.757 75.58H236.107ZM240.225 76.444V81.142H244.995V82.186H240.225V86.956H245.535V88H238.965V75.4H245.535V76.444H240.225ZM257.504 88H256.244L249.278 77.416V88H248.018V75.418H249.278L256.244 85.984V75.418H257.504V88ZM267.72 75.418V76.462H264.228V88H262.968V76.462H259.458V75.418H267.72ZM281.939 85.012H276.215L275.117 88H273.785L278.375 75.58H279.797L284.369 88H283.037L281.939 85.012ZM281.561 83.968L279.077 77.164L276.593 83.968H281.561ZM287.633 80.332C287.945 79.672 288.437 79.126 289.109 78.694C289.793 78.25 290.603 78.028 291.539 78.028C292.427 78.028 293.225 78.238 293.933 78.658C294.653 79.066 295.211 79.654 295.607 80.422C296.015 81.178 296.219 82.06 296.219 83.068C296.219 84.076 296.015 84.964 295.607 85.732C295.211 86.5 294.653 87.094 293.933 87.514C293.225 87.934 292.427 88.144 291.539 88.144C290.615 88.144 289.811 87.928 289.127 87.496C288.443 87.052 287.945 86.5 287.633 85.84V92.644H286.391V78.172H287.633V80.332ZM294.941 83.068C294.941 82.252 294.779 81.55 294.455 80.962C294.143 80.362 293.711 79.906 293.159 79.594C292.607 79.282 291.983 79.126 291.287 79.126C290.615 79.126 289.997 79.288 289.433 79.612C288.881 79.936 288.443 80.398 288.119 80.998C287.795 81.598 287.633 82.294 287.633 83.086C287.633 83.878 287.795 84.574 288.119 85.174C288.443 85.774 288.881 86.236 289.433 86.56C289.997 86.884 290.615 87.046 291.287 87.046C291.983 87.046 292.607 86.89 293.159 86.578C293.711 86.254 294.143 85.792 294.455 85.192C294.779 84.58 294.941 83.872 294.941 83.068ZM299.78 80.332C300.092 79.672 300.584 79.126 301.256 78.694C301.94 78.25 302.75 78.028 303.686 78.028C304.574 78.028 305.372 78.238 306.08 78.658C306.8 79.066 307.358 79.654 307.754 80.422C308.162 81.178 308.366 82.06 308.366 83.068C308.366 84.076 308.162 84.964 307.754 85.732C307.358 86.5 306.8 87.094 306.08 87.514C305.372 87.934 304.574 88.144 303.686 88.144C302.762 88.144 301.958 87.928 301.274 87.496C300.59 87.052 300.092 86.5 299.78 85.84V92.644H298.538V78.172H299.78V80.332ZM307.088 83.068C307.088 82.252 306.926 81.55 306.602 80.962C306.29 80.362 305.858 79.906 305.306 79.594C304.754 79.282 304.13 79.126 303.434 79.126C302.762 79.126 302.144 79.288 301.58 79.612C301.028 79.936 300.59 80.398 300.266 80.998C299.942 81.598 299.78 82.294 299.78 83.086C299.78 83.878 299.942 84.574 300.266 85.174C300.59 85.774 301.028 86.236 301.58 86.56C302.144 86.884 302.762 87.046 303.434 87.046C304.13 87.046 304.754 86.89 305.306 86.578C305.858 86.254 306.29 85.792 306.602 85.192C306.926 84.58 307.088 83.872 307.088 83.068Z" fill="#F2F2F2"/>
<path d="M111.011 46.6181C108.745 31.2599 91.1859 35.4194 82.6895 39.4189V38.2191C116.675 21.901 115.731 37.0192 111.011 46.6181Z" fill="#57B894"/>
<path d="M120.451 34.0197L118.563 32.2199C126.116 30.7801 130.521 34.4197 131.78 36.4194C132.535 56.577 108.179 57.2169 95.9061 55.0172L103.459 53.2174L109.123 51.4176L114.787 48.418L116.675 46.0183L118.563 43.6186L120.451 40.019V36.4194V34.0197Z" fill="#6C63FF"/>
<path d="M120.452 58.0167C93.2629 64.7359 87.7245 53.6172 88.3538 47.218C76.27 56.8169 85.8364 64.8159 92.13 67.6156C111.011 70.0153 118.878 62.2162 120.452 58.0167Z" fill="#FFB9B9"/>
<path d="M100.627 39.4191C82.5007 40.8589 77.9693 56.0171 77.9693 63.4162C68.1512 58.1368 72.6197 49.2179 76.0812 45.4184C82.8784 38.2192 95.2769 38.4192 100.627 39.4191Z" fill="#F2F2F2"/>
<path d="M143.738 64.1082C141.89 64.1082 140.234 63.8082 138.77 63.2082C137.306 62.6082 136.13 61.7202 135.242 60.5442C134.378 59.3682 133.922 57.9522 133.874 56.2962H140.426C140.522 57.2322 140.846 57.9522 141.398 58.4562C141.95 58.9362 142.67 59.1762 143.558 59.1762C144.47 59.1762 145.19 58.9722 145.718 58.5642C146.246 58.1322 146.51 57.5442 146.51 56.8002C146.51 56.1762 146.294 55.6602 145.862 55.2522C145.454 54.8442 144.938 54.5082 144.314 54.2442C143.714 53.9802 142.85 53.6802 141.722 53.3442C140.09 52.8402 138.758 52.3362 137.726 51.8322C136.694 51.3282 135.806 50.5842 135.062 49.6002C134.318 48.6162 133.946 47.3322 133.946 45.7482C133.946 43.3962 134.798 41.5602 136.502 40.2402C138.206 38.8962 140.426 38.2242 143.162 38.2242C145.946 38.2242 148.19 38.8962 149.894 40.2402C151.598 41.5602 152.51 43.4082 152.63 45.7842H145.97C145.922 44.9682 145.622 44.3322 145.07 43.8762C144.518 43.3962 143.81 43.1562 142.946 43.1562C142.202 43.1562 141.602 43.3602 141.146 43.7682C140.69 44.1522 140.462 44.7162 140.462 45.4602C140.462 46.2762 140.846 46.9122 141.614 47.3682C142.382 47.8242 143.582 48.3162 145.214 48.8442C146.846 49.3962 148.166 49.9242 149.174 50.4282C150.206 50.9322 151.094 51.6642 151.838 52.6242C152.582 53.5842 152.954 54.8202 152.954 56.3322C152.954 57.7722 152.582 59.0802 151.838 60.2562C151.118 61.4322 150.062 62.3682 148.67 63.0642C147.278 63.7602 145.634 64.1082 143.738 64.1082ZM186.55 38.5842V63.8562H180.394V53.4522H170.818V63.8562H164.662V38.5842H170.818V48.4842H180.394V38.5842H186.55ZM214.646 59.3922H205.214L203.702 63.8562H197.258L206.402 38.5842H213.53L222.674 63.8562H216.158L214.646 59.3922ZM213.062 54.6402L209.93 45.3882L206.834 54.6402H213.062ZM250.153 46.5762C249.697 45.7362 249.037 45.1002 248.173 44.6682C247.333 44.2122 246.337 43.9842 245.185 43.9842C243.193 43.9842 241.597 44.6442 240.397 45.9642C239.197 47.2602 238.597 49.0002 238.597 51.1842C238.597 53.5122 239.221 55.3362 240.469 56.6562C241.741 57.9522 243.481 58.6002 245.689 58.6002C247.201 58.6002 248.473 58.2162 249.505 57.4482C250.561 56.6802 251.329 55.5762 251.809 54.1362H243.997V49.6002H257.389V55.3242C256.933 56.8602 256.153 58.2882 255.049 59.6082C253.969 60.9282 252.589 61.9962 250.909 62.8122C249.229 63.6282 247.333 64.0362 245.221 64.0362C242.725 64.0362 240.493 63.4962 238.525 62.4162C236.581 61.3122 235.057 59.7882 233.953 57.8442C232.873 55.9002 232.333 53.6802 232.333 51.1842C232.333 48.6882 232.873 46.4682 233.953 44.5242C235.057 42.5562 236.581 41.0322 238.525 39.9522C240.469 38.8482 242.689 38.2962 245.185 38.2962C248.209 38.2962 250.753 39.0282 252.817 40.4922C254.905 41.9562 256.285 43.9842 256.957 46.5762H250.153ZM284.451 59.3922H275.019L273.507 63.8562H267.063L276.207 38.5842H283.335L292.479 63.8562H285.963L284.451 59.3922ZM282.867 54.6402L279.735 45.3882L276.639 54.6402H282.867Z" fill="white"/>
</svg>
