<svg id="Capa_1" enable-background="new 0 0 506.011 506.011" height="512" viewBox="0 0 506.011 506.011" width="512" xmlns="http://www.w3.org/2000/svg"><path d="m504.605 304.545c-1.371-4.963-3.678-9.563-6.861-13.677-4.204-5.424-9.623-9.457-15.61-12.003 2.429-46.498 1.539-93.616-2.668-140.147-.373-4.125-4.023-7.167-8.145-6.794-4.125.373-7.167 4.02-6.794 8.145 4.071 45.024 4.993 90.605 2.756 135.615-7.639-.157-15.369 1.868-22.14 6.268l-103.718 67.328c-9.139 5.927-20.077 8.166-30.792 6.303l-84.433-14.702 44.681-26.785c4.681-2.805 8.646-6.344 11.852-10.374h42.673c4.142 0 7.5-3.358 7.5-7.5v-35.24h35.23c4.142 0 7.5-3.358 7.5-7.5v-51.7c0-4.142-3.358-7.5-7.5-7.5h-35.23v-35.23c0-4.142-3.358-7.5-7.5-7.5h-51.7c-4.142 0-7.5 3.358-7.5 7.5v35.23h-35.24c-4.142 0-7.5 3.358-7.5 7.5v37.866l-91.197 44.544c-3.074-52.825-1.816-106.238 3.756-158.942 1.519-14.371 13.102-25.557 27.54-26.598 90.237-6.494 181.746-6.494 271.979 0 10.052.728 18.985 6.4 23.898 15.174 2.024 3.614 6.595 4.904 10.208 2.88 3.614-2.023 4.904-6.594 2.88-10.208-7.384-13.187-20.805-21.713-35.905-22.807-12.577-.905-25.179-1.672-37.798-2.327-.444-11.673-1.265-23.431-2.494-35.054-1.365-13.017-11.842-23.146-24.912-24.086-47.687-3.426-96.045-3.426-143.732 0-13.07.94-23.547 11.07-24.911 24.08-1.23 11.63-2.05 23.389-2.495 35.06-12.618.655-25.22 1.422-37.796 2.327-21.692 1.565-39.095 18.379-41.379 39.982-5.878 55.595-7.016 111.965-3.418 167.64l-1.531.748c-1.819.88-3.609 1.896-5.296 3-13.172 8.55-21.376 22.858-22.315 38.336l-9.138 2.532c-.961-2.353-1.928-4.703-2.903-7.047-1.292-3.106-4.491-4.971-7.833-4.564-23.306 2.844-45.224 10.589-65.144 23.019-2.854 1.781-4.173 5.244-3.227 8.473 12.483 42.583 27.454 84.95 44.497 125.925 1.174 2.822 3.924 4.62 6.921 4.62.302 0 .606-.018.912-.055 23.307-2.844 45.224-10.589 65.144-23.019 2.854-1.781 4.173-5.244 3.227-8.473-.409-1.395-.828-2.789-1.242-4.184l27.132-10.037 28.047 3.41c4.114.501 7.851-2.428 8.351-6.54s-2.428-7.85-6.54-8.35l-29.85-3.63c-1.186-.144-2.388-.003-3.507.411l-28 10.358c-9.031-29.077-19.196-57.971-30.366-86.308l13.02-3.607c3.424-.949 5.712-4.17 5.482-7.715-.806-12.375 5.133-24.243 15.525-30.989 1.174-.769 2.398-1.463 3.663-2.075l112.887-55.139c1.643-.802 3.348-1.445 5.083-1.917 13.011-3.566 26.601 2.238 33.046 14.113 7.414 13.665 2.774 30.629-10.564 38.621l-61.97 37.15c-2.688 1.611-4.09 4.723-3.517 7.803s3 5.48 6.087 6.018l104.293 18.16c14.457 2.511 29.204-.506 41.527-8.499l103.724-67.332c10.727-6.971 24.731-4.594 32.571 5.521 1.98 2.559 3.414 5.414 4.258 8.471 2.549 9.312-.619 19.229-8.074 25.343-.073.054-.145.109-.215.166l-128.994 103.473c-8.97 7.202-20.669 10.533-32.109 9.133l-114.24-13.9c-4.113-.501-7.851 2.427-8.351 6.539s2.428 7.851 6.54 8.351l114.236 13.899c2.311.282 4.628.422 6.942.422 13.127 0 26.082-4.485 36.371-12.746l128.754-103.281c.083-.061.166-.125.247-.19 12.267-9.842 17.511-26.002 13.354-41.186zm-286.91-256.669c.605-5.776 5.261-10.271 11.069-10.689 46.973-3.375 94.609-3.375 141.581 0 5.809.418 10.464 4.913 11.07 10.696 1.149 10.863 1.934 21.845 2.378 32.756-56.061-2.465-112.417-2.465-168.477 0 .444-10.909 1.229-21.892 2.379-32.763zm-112.73 405.59c-15.09 8.63-31.367 14.381-48.529 17.148-15.185-37.014-28.653-75.128-40.093-113.463 15.09-8.63 31.367-14.382 48.529-17.148 15.185 37.014 28.653 75.128 40.093 113.463zm133.501-219.875v-24.309h35.24c4.142 0 7.5-3.358 7.5-7.5v-35.23h36.7v35.23c0 4.142 3.358 7.5 7.5 7.5h35.23v36.7h-35.23c-4.142 0-7.5 3.358-7.5 7.5v35.24h-27.405c3.134-10.739 2.174-22.656-3.583-33.267-9.501-17.507-29.233-26.319-48.452-21.864z"/><path d="m239.738 305.693c3.047 0 6.141-.735 9.016-2.268l9.297-4.958c3.655-1.949 5.038-6.492 3.088-10.147-1.948-3.655-6.494-5.037-10.147-3.088l-9.297 4.958c-1.815.968-4.114.415-5.233-1.257-6.2-9.259-8.161-18.706-8.212-18.958-.789-4.058-4.713-6.713-8.775-5.935-4.068.78-6.733 4.711-5.953 8.779.097.504 2.462 12.492 10.477 24.461 3.638 5.431 9.597 8.413 15.739 8.413z"/><path d="m72.956 450.669c3.481 0 6.532-2.473 7.309-5.851 1.519-6.608-6.202-11.611-11.668-7.746-2.755 1.948-3.853 5.656-2.637 8.797 1.108 2.864 3.92 4.8 6.996 4.8z"/></svg>