<?xml version="1.0" encoding="UTF-8"?>
<svg xmlns="http://www.w3.org/2000/svg" xmlns:xlink="http://www.w3.org/1999/xlink" width="512" height="512" viewBox="0 0 60 60" version="1.1"><!-- Generator: Sketch 51.3 (57544) - http://www.bohemiancoding.com/sketch --><title>039 - Money Cover</title><desc>Created with Sketch.</desc><defs/><g id="Page-1" stroke="none" stroke-width="1" fill="none" fill-rule="evenodd"><g id="039---Money-Cover" transform="translate(0.000000, -1.000000)" fill="#000000" fill-rule="nonzero"><path d="M3.19,27.213 C2.10647554,27.2141683 1.09767216,27.7654263 0.511461714,28.6766803 C-0.0747487362,29.5879344 -0.158156663,30.7345 0.29,31.721 L4.21,40.342 C4.73917222,41.5088011 5.47463195,42.5704919 6.381,43.476 L12.545,49.639 C12.1966655,50.0067232 12.0017449,50.4934881 12,51 L12,59 C12,60.1045695 12.8954305,61 14,61 L25,61 C26.1045695,61 27,60.1045695 27,59 L27,51 C27,49.8954305 26.1045695,49 25,49 L25,47.139 C25.0305304,44.7708534 24.2582606,42.4621509 22.809,40.589 C21.9586309,39.4707591 20.7996995,38.6257195 19.475,38.158 C17.3691733,37.2730283 15.4325476,36.0299879 13.751,34.484 C12.1903615,33.1942997 9.9712756,33.0726393 8.279,34.184 L6.121,29.146 C5.61941372,27.9727182 4.46600081,27.2120402 3.19,27.213 Z M25,59 L14,59 L14,51 L25,51 L25,59 Z M6.52,35.151 C7.11429336,36.5425105 7.97010296,37.8070447 9.041,38.876 L13.61,43.445 C13.8610745,43.7049566 14.2328779,43.8092126 14.5825073,43.7176972 C14.9321368,43.6261817 15.2051817,43.3531368 15.2966972,43.0035073 C15.3882126,42.6538779 15.2839566,42.2820745 15.024,42.031 L10.455,37.462 C9.99598241,37.0037515 9.58331535,36.501316 9.223,35.962 C10.1835296,35.2224882 11.5276474,35.2448902 12.463,36.016 C14.3318599,37.7316939 16.4921067,39.0998389 18.842,40.056 C19.7983175,40.4043895 20.6323375,41.0239969 21.242,41.839 C22.4095377,43.3565354 23.0291468,45.2245266 23,47.139 L23,49 L14.731,49 L7.793,42.062 C7.05633569,41.3260078 6.45843454,40.4632009 6.028,39.515 L2.108,30.894 C1.94075327,30.5260467 1.97187988,30.0983304 2.19063714,29.7584681 C2.40939441,29.4186059 2.78582049,29.2131465 3.19,29.213 C3.66600986,29.2122141 4.09636921,29.4961017 4.283,29.934 L6.52,35.151 Z" id="Shape"/><path d="M22,54 L21,54 C20.4477153,54 20,54.4477153 20,55 C20,55.5522847 20.4477153,56 21,56 L22,56 C22.5522847,56 23,55.5522847 23,55 C23,54.4477153 22.5522847,54 22,54 Z" id="Shape"/><path d="M55.792,40.343 L59.712,31.721 C60.4230666,30.1102615 59.6937385,28.2280666 58.083,27.517 C56.4722615,26.8059334 54.5900666,27.5352615 53.879,29.146 L51.721,34.181 C50.0293913,33.0684876 47.8098239,33.1901967 46.25,34.481 C44.5679049,36.0267647 42.6309924,37.269772 40.525,38.155 C39.2003005,38.6227195 38.0413691,39.4677591 37.191,40.586 C35.7410958,42.4599594 34.9687894,44.7698288 35,47.139 L35,49 C33.8954305,49 33,49.8954305 33,51 L33,59 C33,60.1045695 33.8954305,61 35,61 L46,61 C47.1045695,61 48,60.1045695 48,59 L48,51 C47.9987959,50.4937624 47.804605,50.0070336 47.457,49.639 L53.621,43.476 C54.5271174,42.5706634 55.2625517,41.509348 55.792,40.343 Z M46,59 L35,59 L35,51 L46,51 L46,59 Z M45.269,49 L37,49 L37,47.139 C36.9697088,45.2250013 37.5878922,43.3570584 38.754,41.839 C39.3636625,41.0239969 40.1976825,40.4043895 41.154,40.056 C43.5041096,39.0996763 45.6646575,37.731555 47.534,36.016 C48.4692202,35.2462459 49.8120886,35.2242657 50.772,35.963 C50.4121315,36.5023678 49.9997905,37.0048142 49.541,37.463 L44.972,42.032 C44.5930278,42.4243789 44.5984476,43.0480848 44.9841814,43.4338186 C45.3699152,43.8195524 45.9936211,43.8249722 46.386,43.446 L50.955,38.877 C52.025897,37.8080447 52.8817066,36.5435105 53.476,35.152 L55.713,29.934 C55.90015,29.496671 56.3303096,29.2133087 56.806,29.214 C57.209904,29.2143006 57.5860345,29.4196257 57.8047347,29.7591971 C58.0234348,30.0987685 58.0547931,30.5261433 57.888,30.894 L53.968,39.516 C53.5375655,40.4642009 52.9396643,41.3270078 52.203,42.063 L45.269,49 Z" id="Shape"/><path d="M39,54 L38,54 C37.4477153,54 37,54.4477153 37,55 C37,55.5522847 37.4477153,56 38,56 L39,56 C39.5522847,56 40,55.5522847 40,55 C40,54.4477153 39.5522847,54 39,54 Z" id="Shape"/><path d="M39.5,36.455 C39.5323798,36.4292726 39.5634205,36.4019034 39.593,36.373 C42.3701037,34.7377942 44.6888997,32.4272538 46.334,29.656 C46.3794611,29.6081879 46.4199984,29.5559249 46.455,29.5 C46.4676035,29.4690191 46.4782904,29.4372926 46.487,29.405 C49.8376233,23.5826346 49.8376233,16.4173654 46.487,10.595 C46.4784911,10.5610143 46.4678023,10.5276118 46.455,10.495 C46.4294821,10.461833 46.4017522,10.4304282 46.372,10.401 C44.7244587,7.60248928 42.3915107,5.2695413 39.593,3.622 C39.5634205,3.59309659 39.5323798,3.5657274 39.5,3.54 C39.47,3.523 39.437,3.523 39.406,3.509 C33.5832899,0.156993961 26.4167101,0.156993961 20.594,3.509 C20.5620568,3.51738322 20.5306634,3.52773636 20.5,3.54 C20.4676202,3.5657274 20.4365795,3.59309659 20.407,3.622 C17.6082451,5.26922581 15.2752258,7.60224507 13.628,10.401 C13.5982478,10.4304282 13.5705179,10.461833 13.545,10.495 C13.5321977,10.5276118 13.5215089,10.5610143 13.513,10.595 C10.1623767,16.4173654 10.1623767,23.5826346 13.513,29.405 C13.5217096,29.4372926 13.5323965,29.4690191 13.545,29.5 C13.5800016,29.5559249 13.6205389,29.6081879 13.666,29.656 C15.3111003,32.4272538 17.6298963,34.7377942 20.407,36.373 C20.4365795,36.4019034 20.4676202,36.4292726 20.5,36.455 C20.5419023,36.4759915 20.5853652,36.493711 20.63,36.508 C26.4348399,39.830616 33.5651601,39.830616 39.37,36.508 C39.4146348,36.493711 39.4580977,36.4759915 39.5,36.455 Z M39.345,34.186 L38.345,32.456 C39.9680905,31.3649144 41.3639144,29.9690905 42.455,28.346 L44.185,29.346 C42.9137053,31.268514 41.267514,32.9147053 39.345,34.186 Z M13.051,21 L15.051,21 C15.1777396,22.9497214 15.6874496,24.8553571 16.551,26.608 L14.817,27.608 C13.7825189,25.5493238 13.1814574,23.3002782 13.051,21 Z M14.82,12.391 L16.554,13.391 C15.6892838,15.1437346 15.1785485,17.0497323 15.051,19 L13.051,19 C13.1822577,16.6991674 13.7843467,14.4497573 14.82,12.391 Z M17,20 C17,12.8202983 22.8202983,7 30,7 C37.1797017,7 43,12.8202983 43,20 C43,27.1797017 37.1797017,33 30,33 C22.8237249,32.991734 17.008266,27.1762751 17,20 Z M31,5.051 L31,3.051 C33.3008326,3.18225767 35.5502427,3.78434671 37.609,4.82 L36.609,6.554 C34.8562654,5.68928383 32.9502677,5.17854847 31,5.051 Z M29,5.051 C27.0502786,5.17773958 25.1446429,5.68744957 23.392,6.551 L22.392,4.817 C24.4506762,3.78251889 26.6997218,3.18145736 29,3.051 L29,5.051 Z M46.949,19 L44.949,19 C44.8222604,17.0502786 44.3125504,15.1446429 43.449,13.392 L45.183,12.392 C46.2174811,14.4506762 46.8185426,16.6997218 46.949,19 Z M45.18,27.609 L43.446,26.609 C44.3107162,24.8562654 44.8214515,22.9502677 44.949,21 L46.949,21 C46.8177423,23.3008326 46.2156533,25.5502427 45.18,27.609 Z M29,34.949 L29,36.949 C26.6991674,36.8177423 24.4497573,36.2156533 22.391,35.18 L23.391,33.446 C25.1437346,34.3107162 27.0497323,34.8214515 29,34.949 Z M31,34.949 C32.9497214,34.8222604 34.8553571,34.3125504 36.608,33.449 L37.608,35.183 C35.5493238,36.2174811 33.3002782,36.8185426 31,36.949 L31,34.949 Z M44.186,10.655 L42.456,11.655 C41.3649144,10.0319095 39.9690905,8.63608564 38.346,7.545 L39.346,5.815 C41.268514,7.08629471 42.9147053,8.73248599 44.186,10.655 Z M20.655,5.814 L21.655,7.544 C20.0319095,8.63508564 18.6360856,10.0309095 17.545,11.654 L15.815,10.654 C17.0862947,8.73148599 18.732486,7.08529471 20.655,5.814 Z M15.814,29.345 L17.544,28.345 C18.6350856,29.9680905 20.0309095,31.3639144 21.654,32.455 L20.654,34.185 C18.731486,32.9137053 17.0852947,31.267514 15.814,29.345 Z" id="Shape"/><path d="M25,26 C24.4477153,26 24,26.4477153 24,27 C24,27.5522847 24.4477153,28 25,28 L29,28 L29,30 C29,30.5522847 29.4477153,31 30,31 C30.5522847,31 31,30.5522847 31,30 L31,28 L31.5,28 C33.9852814,28 36,25.9852814 36,23.5 C36,21.0147186 33.9852814,19 31.5,19 L31,19 L31,14 L35,14 C35.5522847,14 36,13.5522847 36,13 C36,12.4477153 35.5522847,12 35,12 L31,12 L31,10 C31,9.44771525 30.5522847,9 30,9 C29.4477153,9 29,9.44771525 29,10 L29,12 L28.5,12 C26.0147186,12 24,14.0147186 24,16.5 C24,18.9852814 26.0147186,21 28.5,21 L29,21 L29,26 L25,26 Z M28.5,19 C27.1192881,19 26,17.8807119 26,16.5 C26,15.1192881 27.1192881,14 28.5,14 L29,14 L29,19 L28.5,19 Z M31,21 L31.5,21 C32.8807119,21 34,22.1192881 34,23.5 C34,24.8807119 32.8807119,26 31.5,26 L31,26 L31,21 Z" id="Shape"/></g></g></svg>
