<svg width="1440" height="802" viewBox="0 0 1440 802" fill="none" xmlns="http://www.w3.org/2000/svg">
<path d="M42.1736 0H1.52435L0 802H745.406H1440V355.221L1412.05 387.576L1395.29 398.591L1378.52 407.54L1365.31 413.047H1353.11H1343.46H1332.79L1321.1 407.54L1305.35 401.344L1288.07 393.772L1233.2 364.858L1162.57 311.162L1128.53 289.133L1081.27 271.234H1040.11H1013.69L982.188 276.053L937.474 285.691L916.641 292.575L883.105 300.148L862.781 303.59L850.078 306.343L812.985 309.785H786.055H755.568L716.951 306.343L658.01 291.198L613.804 276.742L590.939 265.727L577.728 256.778L515.229 220.98L455.78 186.56L431.39 176.922L397.855 165.907L377.53 159.712L358.73 154.893L314.016 148.009L274.891 146.632L246.944 143.19L210.868 136.994L163.105 116.342L148.878 109.458L131.602 99.1313L108.737 81.921L57.9252 22.7176L46.7467 6.88412L42.1736 0Z" fill="#1F2831"/>
</svg>
